<svg xmlns="http://www.w3.org/2000/svg" width="184.08" height="26.092" viewBox="0 0 184.08 26.092"><defs><style>.a{fill:none;}.b{fill:#000;}</style></defs><g transform="translate(-40.209 -20)"><g transform="translate(40.209 20)"><rect class="a" width="183.981" height="26.078" transform="translate(0.099)"/><path class="b" d="M127.87,34.1V55.091h4.3V46.3h11.356V42.71H132.171V37.668h12.251V34.1Z" transform="translate(-85.941 -29.453)"/><path class="b" d="M170.137,37.9h.04l3.964,9.572h-7.968Zm-2.606-3.8L158.57,55.091h4.449l1.681-4.045h10.916l1.681,4.045h4.543L172.879,34.1Z" transform="translate(-102.845 -29.453)"/><path class="b" d="M271.161,34.1v8.525h-10.43V34.1h-4.3V55.091h4.3V46.467h10.43v8.624h4.319V34.1Z" transform="translate(-156.726 -29.453)"/><rect class="b" width="4.301" height="20.996" transform="translate(121.755 4.647)"/><path class="b" d="M331.074,51.338A7.977,7.977,0,0,0,333,51.109a6.944,6.944,0,0,0,1.712-.661,6.341,6.341,0,0,0,2.49-2.521,7.638,7.638,0,0,0,.683-1.8,8.984,8.984,0,0,0,.243-2.135v-.031a8.984,8.984,0,0,0-.243-2.135,7.638,7.638,0,0,0-.683-1.8,6.159,6.159,0,0,0-1.074-1.443,6.568,6.568,0,0,0-1.416-1.1A6.934,6.934,0,0,0,333,36.831a8.629,8.629,0,0,0-3.874,0,6.939,6.939,0,0,0-1.7.656,6.463,6.463,0,0,0-1.416,1.083,6.159,6.159,0,0,0-1.074,1.443,7.451,7.451,0,0,0-.679,1.8,9.24,9.24,0,0,0-.234,2.144v.031a9.176,9.176,0,0,0,.234,2.139,7.488,7.488,0,0,0,.679,1.8,6.375,6.375,0,0,0,1.074,1.452,6.229,6.229,0,0,0,1.416,1.074,6.949,6.949,0,0,0,1.7.661,7.989,7.989,0,0,0,1.946.229m0,3.6a13.527,13.527,0,0,1-4.714-.818,10.632,10.632,0,0,1-3.654-2.247,10.026,10.026,0,0,1-2.368-3.442,11.383,11.383,0,0,1-.849-4.494V43.9a11.347,11.347,0,0,1,.849-4.462A10.025,10.025,0,0,1,322.706,36a10.546,10.546,0,0,1,3.654-2.22,13.634,13.634,0,0,1,4.714-.786,13.482,13.482,0,0,1,4.683.786A10.84,10.84,0,0,1,339.428,36a9.95,9.95,0,0,1,2.386,3.442,11.346,11.346,0,0,1,.849,4.462v.031a11.382,11.382,0,0,1-.849,4.494,9.95,9.95,0,0,1-2.386,3.442,10.933,10.933,0,0,1-3.672,2.247,13.387,13.387,0,0,1-4.683.791" transform="translate(-191.446 -28.841)"/><path class="b" d="M390.458,34.1V45.124l.054,4.615h-.027L380.877,34.1h-5.4V55.091h4.094V44.068l-.049-4.615h.022l9.568,15.639h5.456V34.1Z" transform="translate(-222.276 -29.453)"/><path class="b" d="M213.144,48.135a3.964,3.964,0,0,0,1.011,2.117q1.213,1.276,4.175,1.272a10.1,10.1,0,0,0,2.876-.337q2.094-.638,2.094-2.4a1.735,1.735,0,0,0-1.025-1.582,12.174,12.174,0,0,0-3.258-.962l-2.539-.449a18.159,18.159,0,0,1-5.249-1.586,4.888,4.888,0,0,1-2.368-4.494,5.405,5.405,0,0,1,2.31-4.494c1.546-1.2,3.923-1.834,6.921-1.834,2.5,0,4.678.3,6.359,1.577,3.42,2.6,3.231,5.658,3.231,5.658l-4.593-.009v-.611c-.085-1.24-1.218-2.121-2.4-2.647a7.235,7.235,0,0,0-2.921-.517,6.17,6.17,0,0,0-3.1.67,2.081,2.081,0,0,0-1.159,1.878,1.762,1.762,0,0,0,1.141,1.654,17.373,17.373,0,0,0,3.114.786l4.116.854a11.242,11.242,0,0,1,4.045,1.429,5.066,5.066,0,0,1,2.1,4.355,5.741,5.741,0,0,1-2.485,4.705q-2.487,1.874-7.02,1.869c-3.092,0-5.15-.53-6.921-1.762a6.415,6.415,0,0,1-3.11-5.146l-.027-.755h4.638Z" transform="translate(-130.32 -29.062)"/><path class="b" d="M43.854,49.386a12.583,12.583,0,0,1-3.078-1.218,11.685,11.685,0,0,1-2.553-1.932,12.156,12.156,0,0,1-1.955-2.593,12.785,12.785,0,0,1-1.249-3.2,15.351,15.351,0,0,1-.449-3.694,14.574,14.574,0,0,1,.449-3.636A12.615,12.615,0,0,1,36.3,29.968a11.684,11.684,0,0,1,2-2.575,12.269,12.269,0,0,1,2.593-1.928,12.619,12.619,0,0,1,3.074-1.222,13.707,13.707,0,0,1,3.429-.422c.634,0,1.236.022,1.8.072s1.1.108,1.622.184,1.025.153,1.51.238l1.393.256.818,6.292-.607.094a15.278,15.278,0,0,0-1.249-3.011,6.741,6.741,0,0,0-1.582-1.928,5.676,5.676,0,0,0-1.95-1.043,8.053,8.053,0,0,0-2.328-.319,7.572,7.572,0,0,0-2.081.288,6.894,6.894,0,0,0-1.932.9,8.116,8.116,0,0,0-1.685,1.505,8.853,8.853,0,0,0-1.348,2.171,13.8,13.8,0,0,0-.872,2.867,18.506,18.506,0,0,0-.315,3.6,22.084,22.084,0,0,0,.643,5.447,13.168,13.168,0,0,0,1.748,4.1A8.013,8.013,0,0,0,43.7,48.092a7.154,7.154,0,0,0,3.532.9,11.452,11.452,0,0,0,1.667-.112,3.51,3.51,0,0,0,1.24-.418,1.968,1.968,0,0,0,.8-.876,3.375,3.375,0,0,0,.274-1.483v-4.31a7.492,7.492,0,0,0-.112-1.47,1.582,1.582,0,0,0-.449-.854,2.148,2.148,0,0,0-.975-.449,14.442,14.442,0,0,0-1.784-.288v-.544h9.473v.544a10.783,10.783,0,0,0-1.434.288,1.685,1.685,0,0,0-.827.449,1.851,1.851,0,0,0-.377.854,7.922,7.922,0,0,0-.108,1.47v4.242l.153,2.445a9.747,9.747,0,0,0-1.744.261l-1.834.449c-.625.162-1.258.3-1.9.422a10.278,10.278,0,0,1-1.977.184A14.346,14.346,0,0,1,43.854,49.386Z" transform="translate(-34.57 -23.793)"/><rect class="b" width="0.737" height="21.131" transform="translate(31.768 4.62)"/></g></g></svg>